<?xml version="1.0" standalone="no"?><!DOCTYPE svg PUBLIC "-//W3C//DTD SVG 1.1//EN" "http://www.w3.org/Graphics/SVG/1.1/DTD/svg11.dtd"><svg t="1752507361326" class="icon" viewBox="0 0 1024 1024" version="1.1" xmlns="http://www.w3.org/2000/svg" p-id="12388" xmlns:xlink="http://www.w3.org/1999/xlink" width="200" height="200"><path d="M0 0m142.222222 0l739.555556 0q142.222222 0 142.222222 142.222222l0 739.555556q0 142.222222-142.222222 142.222222l-739.555556 0q-142.222222 0-142.222222-142.222222l0-739.555556q0-142.222222 142.222222-142.222222Z" fill="#EBE5F6" p-id="12389"></path><path d="M768 395.662222v332.743111c0 20.622222-13.852444 37.603556-31.431111 39.424l-3.128889 0.170667h-442.88c-18.005333 0-32.824889-15.843556-34.417778-36.010667L256 728.376889V395.662222h512z m-254.236444 51.086222l-0.853334 2.56-48.184889 179.854223a23.267556 23.267556 0 0 0 44.088889 14.620444l0.881778-2.56 48.184889-179.854222a23.267556 23.267556 0 0 0-44.088889-14.620445z m106.837333 19.456a21.504 21.504 0 0 0-14.791111 15.559112 22.897778 22.897778 0 0 0 3.584 19.057777l1.848889 2.190223 40.817777 42.894222-40.817777 42.894222a22.584889 22.584889 0 0 0-6.144 15.559111c0 5.831111 2.218667 11.434667 6.144 15.559111a20.394667 20.394667 0 0 0 14.791111 6.456889 20.252444 20.252444 0 0 0 12.743111-4.551111l2.048-1.905778 55.637333-58.424889a22.755556 22.755556 0 0 0 1.820445-28.956444l-1.820445-2.161778-55.637333-58.481778a20.280889 20.280889 0 0 0-20.195556-5.688889z m-230.855111 3.185778l-2.161778 1.820445-55.608889 58.396444a22.698667 22.698667 0 0 0-1.820444 28.928l1.820444 2.161778 55.608889 58.424889a20.252444 20.252444 0 0 0 29.383111-0.284445 22.840889 22.840889 0 0 0 2.048-28.558222l-1.820444-2.275555-40.817778-42.894223 40.817778-42.865777a22.812444 22.812444 0 0 0-0.711111-30.350223 20.195556 20.195556 0 0 0-26.737778-2.503111zM256 295.537778c0-20.622222 13.795556-37.546667 31.402667-39.395556l3.128889-0.170666h442.908444c18.005333 0 32.768 15.815111 34.417778 35.925333l0.142222 3.640889v53.532444H256V295.537778z" fill="#9671EC" p-id="12390"></path></svg>